<svg width="1666" height="138" viewBox="0 0 1666 138" fill="none" xmlns="http://www.w3.org/2000/svg">
<path d="M61.1832 137.468C52.2768 137.468 44.0803 135.855 36.5938 132.628C29.2363 129.401 22.847 124.819 17.4257 118.881C12.0044 112.943 7.74481 105.715 4.64693 97.1959C1.54906 88.6767 0.000116589 79.1895 0.000116589 68.7341C0.000116589 58.1497 1.54906 48.6625 4.64693 40.2724C7.74481 31.7532 12.0044 24.5248 17.4257 18.5872C22.847 12.6496 29.2363 8.06735 36.5938 4.84039C44.0803 1.61344 52.2768 -4.05497e-05 61.1832 -4.05497e-05C69.9605 -4.05497e-05 78.0279 1.61344 85.3854 4.84039C92.8719 8.06735 99.3258 12.6496 104.747 18.5872C110.297 24.5248 114.557 31.7532 117.526 40.2724C120.624 48.6625 122.173 58.1497 122.173 68.7341C122.173 79.1895 120.624 88.6767 117.526 97.1959C114.557 105.715 110.297 112.943 104.747 118.881C99.3258 124.819 92.8719 129.401 85.3854 132.628C78.0279 135.855 69.9605 137.468 61.1832 137.468ZM60.796 109.781C54.6002 109.781 49.308 108.49 44.9194 105.909C40.5307 103.198 37.1101 98.8094 34.6576 92.7427C32.3342 86.676 31.1725 78.7377 31.1725 68.9278C31.1725 58.9887 32.3342 51.0504 34.6576 45.1128C36.981 39.1752 40.3371 34.8511 44.7257 32.1404C49.2435 29.3007 54.6002 27.8809 60.796 27.8809C66.3463 27.8809 71.1222 28.978 75.1237 31.1724C79.2542 33.2376 82.4166 36.5936 84.6109 41.2405C86.8052 45.8873 87.9024 52.083 87.9024 59.8277H76.2854C76.2854 54.4064 75.64 50.1469 74.3492 47.049C73.1875 43.822 71.4449 41.5632 69.1215 40.2724C66.7981 38.8525 64.0229 38.1426 60.796 38.1426C55.1165 38.1426 50.7279 40.4014 47.63 44.9192C44.5321 49.3079 42.9832 56.2781 42.9832 65.8299V71.832C42.9832 78.0278 43.6286 83.1909 44.9194 87.3214C46.3392 91.4519 48.3399 94.5498 50.9215 96.615C53.6321 98.6803 56.9236 99.7129 60.796 99.7129C64.0229 99.7129 66.7981 99.003 69.1215 97.5831C71.574 96.1633 73.4456 93.8399 74.7364 90.6129C76.1563 87.3859 76.8662 83.1909 76.8662 78.0278H87.9024C87.9024 85.1271 86.8052 91.0647 84.6109 95.8406C82.4166 100.487 79.2542 103.972 75.1237 106.296C71.1222 108.619 66.3463 109.781 60.796 109.781ZM61.1832 128.949C71.2513 128.949 80.1577 126.561 87.9024 121.785C95.7762 116.88 101.972 109.91 106.49 100.875C111.007 91.8391 113.266 81.1256 113.266 68.7341C113.266 56.2135 111.007 45.5 106.49 36.5936C101.972 27.5582 95.7762 20.6525 87.9024 15.8766C80.1577 10.9716 71.2513 8.51912 61.1832 8.51912C51.1151 8.51912 42.1442 10.9716 34.2704 15.8766C26.3966 20.6525 20.2009 27.5582 15.6831 36.5936C11.1654 45.5 8.90652 56.2135 8.90652 68.7341C8.90652 81.2547 11.1654 92.0328 15.6831 101.068C20.2009 109.975 26.3966 116.88 34.2704 121.785C42.1442 126.561 51.1151 128.949 61.1832 128.949ZM169.843 135.145V2.32336H225.412C234.705 2.32336 242.192 4.06592 247.871 7.55103C253.68 10.9071 257.939 15.6184 260.65 21.6851C263.361 27.6227 264.716 34.5284 264.716 42.4022C264.716 50.6632 263.167 57.9561 260.069 64.2809C256.971 70.4767 252.518 75.3171 246.71 78.8022C241.03 82.2874 234.06 84.0299 225.799 84.0299H187.656V135.145H169.843ZM187.656 68.7341H224.056C231.285 68.7341 236.835 66.4107 240.707 61.7639C244.709 57.1171 246.71 50.7923 246.71 42.7894C246.71 37.3681 245.87 32.8504 244.192 29.2362C242.644 25.4929 240.191 22.6532 236.835 20.717C233.479 18.6518 229.09 17.6191 223.669 17.6191H187.656V68.7341ZM280.553 135.145V2.32336H298.366V135.145H280.553ZM310.78 135.145L356.668 65.4426L315.04 2.32336H336.144L367.897 51.5022H368.865L400.231 2.32336H420.368L379.321 65.249L425.208 135.145H404.104L368.091 79.5767H367.123L330.916 135.145H310.78ZM419.397 135.145L465.09 2.32336H487.743L533.631 135.145H514.656L503.233 101.262H448.826L437.403 135.145H419.397ZM453.86 85.9661H498.199L484.258 43.7575C483.871 42.4667 483.355 40.9178 482.709 39.1107C482.064 37.1745 481.354 35.0447 480.58 32.7213C479.934 30.3979 479.224 28.0745 478.45 25.7511C477.804 23.4277 477.224 21.2979 476.707 19.3617H475.546C474.9 21.6851 474.061 24.3957 473.029 27.4936C472.125 30.4624 471.221 33.4312 470.318 36.4C469.414 39.2397 468.575 41.6922 467.801 43.7575L453.86 85.9661ZM545.559 135.145V2.32336H604.419C613.713 2.32336 621.199 4.00138 626.879 7.35742C632.687 10.5844 636.882 15.1021 639.464 20.9106C642.175 26.5901 643.53 33.1085 643.53 40.466C643.53 49.7596 641.594 57.6979 637.721 64.2809C633.978 70.7348 628.88 75.3817 622.426 78.2214L648.564 135.145H629.396L605.194 82.0937H563.372V135.145H545.559ZM563.372 66.798H603.064C610.421 66.798 615.972 64.5391 619.715 60.0213C623.587 55.3745 625.523 49.0497 625.523 41.0468C625.523 36.0128 624.749 31.8177 623.2 28.4617C621.651 24.9766 619.134 22.3305 615.649 20.5234C612.293 18.5872 607.904 17.6191 602.483 17.6191H563.372V66.798ZM732.24 137.468C722.946 137.468 715.072 135.984 708.619 133.015C702.294 129.917 697.518 125.529 694.291 119.849C691.193 114.041 689.644 107.135 689.644 99.1321V96.4214H705.908V99.1321C705.908 107.135 708.102 113.266 712.491 117.526C716.88 121.656 723.075 123.721 731.078 123.721C739.21 123.721 745.664 121.721 750.44 117.719C755.345 113.589 757.797 107.07 757.797 98.164C757.797 91.9682 756.507 87.1923 753.925 83.8363C751.343 80.3512 747.987 77.8987 743.857 76.4788C739.726 75.059 735.338 74.349 730.691 74.349H717.719V60.6022H731.078C735.467 60.6022 739.468 59.7632 743.082 58.0852C746.697 56.4072 749.536 53.7611 751.602 50.1469C753.796 46.4036 754.893 41.6277 754.893 35.8192C754.893 30.656 753.925 26.461 751.989 23.234C750.053 20.0071 747.407 17.6191 744.051 16.0702C740.694 14.5213 736.951 13.7468 732.821 13.7468C728.303 13.7468 724.172 14.6503 720.429 16.4574C716.815 18.1355 713.975 20.717 711.91 24.2021C709.845 27.6872 708.812 32.0759 708.812 37.3681V40.2724H692.355V36.7873C692.355 29.4298 694.033 22.9759 697.389 17.4255C700.874 11.8752 705.65 7.61557 711.716 4.64677C717.783 1.5489 724.818 -4.05497e-05 732.821 -4.05497e-05C740.565 -4.05497e-05 747.342 1.35528 753.151 4.06592C759.088 6.64749 763.67 10.5844 766.897 15.8766C770.124 21.0397 771.738 27.4291 771.738 35.0447C771.738 40.7241 770.77 45.6291 768.834 49.7596C767.026 53.7611 764.574 57.1171 761.476 59.8277C758.507 62.4093 755.345 64.4745 751.989 66.0235V66.9916C758.443 69.0568 763.8 72.8001 768.059 78.2214C772.448 83.5136 774.642 90.5484 774.642 99.3257C774.642 107.329 772.835 114.17 769.221 119.849C765.736 125.529 760.766 129.917 754.312 133.015C747.987 135.984 740.63 137.468 732.24 137.468ZM793.17 135.145V2.32336H837.509C850.158 2.32336 860.807 4.64677 869.456 9.29359C878.104 13.8113 884.622 20.9752 889.011 30.7851C893.529 40.466 895.788 53.0511 895.788 68.5405C895.788 83.9008 893.529 96.486 889.011 106.296C884.622 116.106 878.039 123.399 869.262 128.175C860.614 132.821 849.965 135.145 837.315 135.145H793.17ZM810.983 119.849H836.347C842.672 119.849 848.351 119.01 853.385 117.332C858.549 115.654 862.873 113.008 866.358 109.394C869.972 105.651 872.747 100.746 874.683 94.6789C876.619 88.4831 877.588 80.932 877.588 72.0256V66.2171C877.588 57.1816 876.619 49.566 874.683 43.3702C872.876 37.1745 870.166 32.205 866.551 28.4617C863.066 24.7184 858.742 22.0078 853.579 20.3298C848.545 18.5227 842.801 17.6191 836.347 17.6191H810.983V119.849ZM933.526 135.145L979.22 2.32336H1001.87L1047.76 135.145H1028.79L1017.36 101.262H962.956L951.533 135.145H933.526ZM967.99 85.9661H1012.33L998.388 43.7575C998.001 42.4667 997.485 40.9178 996.839 39.1107C996.194 37.1745 995.484 35.0447 994.709 32.7213C994.064 30.3979 993.354 28.0745 992.58 25.7511C991.934 23.4277 991.353 21.2979 990.837 19.3617H989.675C989.03 21.6851 988.191 24.3957 987.158 27.4936C986.255 30.4624 985.351 33.4312 984.448 36.4C983.544 39.2397 982.705 41.6922 981.931 43.7575L967.99 85.9661ZM1059.69 135.145V2.32336H1118.55C1127.84 2.32336 1135.33 4.00138 1141.01 7.35742C1146.82 10.5844 1151.01 15.1021 1153.59 20.9106C1156.3 26.5901 1157.66 33.1085 1157.66 40.466C1157.66 49.7596 1155.72 57.6979 1151.85 64.2809C1148.11 70.7348 1143.01 75.3817 1136.56 78.2214L1162.69 135.145H1143.53L1119.32 82.0937H1077.5V135.145H1059.69ZM1077.5 66.798H1117.19C1124.55 66.798 1130.1 64.5391 1133.84 60.0213C1137.72 55.3745 1139.65 49.0497 1139.65 41.0468C1139.65 36.0128 1138.88 31.8177 1137.33 28.4617C1135.78 24.9766 1133.26 22.3305 1129.78 20.5234C1126.42 18.5872 1122.03 17.6191 1116.61 17.6191H1077.5V66.798ZM1228.11 137.468C1215.72 137.468 1205.33 135.016 1196.94 130.111C1188.68 125.077 1182.42 117.526 1178.16 107.458C1174.03 97.2604 1171.96 84.3526 1171.96 68.7341C1171.96 45.5 1176.87 28.2681 1186.68 17.0383C1196.61 5.6794 1210.75 -4.05497e-05 1229.08 -4.05497e-05C1239.4 -4.05497e-05 1248.44 1.87159 1256.18 5.61486C1263.93 9.22905 1269.93 14.7794 1274.19 22.266C1278.45 29.6234 1280.58 39.0461 1280.58 50.5341H1262.77C1262.77 42.6603 1261.41 36.1419 1258.7 30.9787C1256.12 25.8156 1252.25 21.9433 1247.08 19.3617C1242.05 16.6511 1235.92 15.2957 1228.69 15.2957C1220.69 15.2957 1213.78 17.1028 1207.97 20.717C1202.16 24.2021 1197.78 29.688 1194.81 37.1745C1191.84 44.661 1190.35 54.3419 1190.35 66.2171V72.2192C1190.35 83.8363 1191.84 93.3235 1194.81 100.681C1197.78 108.038 1202.1 113.46 1207.78 116.945C1213.46 120.43 1220.36 122.173 1228.5 122.173C1235.72 122.173 1241.92 120.882 1247.08 118.3C1252.38 115.719 1256.38 111.846 1259.09 106.683C1261.8 101.52 1263.15 95.0016 1263.15 87.1278H1280.39C1280.39 98.6157 1278.19 108.103 1273.8 115.59C1269.41 123.076 1263.28 128.626 1255.41 132.241C1247.54 135.726 1238.44 137.468 1228.11 137.468ZM1299.64 135.145V2.32336H1317.45V59.6341H1378.63V2.32336H1396.45V135.145H1378.63V75.1235H1317.45V135.145H1299.64ZM1422.45 135.145V2.32336H1440.26V135.145H1422.45ZM1496.24 135.145L1453.45 2.32336H1472.43L1500.89 93.1299C1501.53 95.0661 1502.18 97.3895 1502.82 100.1C1503.6 102.682 1504.31 105.263 1504.95 107.845C1505.73 110.426 1506.37 112.685 1506.89 114.621H1508.05C1508.57 113.073 1509.08 111.136 1509.6 108.813C1510.25 106.36 1510.96 103.843 1511.73 101.262C1512.5 98.5512 1513.21 95.8406 1513.86 93.1299L1542.13 2.32336H1560.52L1517.73 135.145H1496.24ZM1573.91 135.145V2.32336H1664.52V17.6191H1591.72V59.4405H1656.78V74.9299H1591.72V119.849H1665.49V135.145H1573.91Z" fill="black"/>
</svg>
